<svg width="109" height="23" viewBox="0 0 109 23" fill="none" xmlns="http://www.w3.org/2000/svg">
<path d="M15.2203 17.8354H12.1437L10.4584 12.6722H4.60063L2.99528 17.8354H0L5.80362 0.257492H9.38821L15.2203 17.8354ZM9.95042 10.506L8.42636 5.91602C8.26514 5.44712 7.96304 4.34289 7.51734 2.60465H7.46315C7.28568 3.35225 6.99983 4.45648 6.60697 5.91602L5.11 10.506H9.95042Z" fill="white"/>
<path d="M30.1454 11.3421C30.1454 13.4977 29.548 15.2016 28.3531 16.4525C27.2829 17.566 25.9539 18.122 24.3675 18.122C22.6552 18.122 21.4251 17.5224 20.6759 16.323H20.6217V22.9999H17.7335V9.33309C17.7335 7.9779 17.6969 6.58704 17.6265 5.16052H20.1666L20.3278 7.16954H20.382C21.3452 5.65584 22.8069 4.90031 24.7685 4.90031C26.3021 4.90031 27.5823 5.49073 28.6065 6.6729C29.6333 7.85638 30.1454 9.41234 30.1454 11.3421ZM27.203 11.4451C27.203 10.2115 26.9185 9.1944 26.3468 8.39397C25.7223 7.55919 24.8837 7.1418 23.8324 7.1418C23.1198 7.1418 22.4723 7.37427 21.8938 7.8326C21.314 8.2949 20.9347 8.89853 20.7572 9.64613C20.6678 9.99484 20.6231 10.2801 20.6231 10.5047V12.6181C20.6231 13.54 20.913 14.318 21.4928 14.9533C22.0727 15.5886 22.8259 15.9056 23.7525 15.9056C24.8403 15.9056 25.687 15.4962 26.2926 14.6799C26.8995 13.8623 27.203 12.7845 27.203 11.4451Z" fill="white"/>
<path d="M45.0977 11.3421C45.0977 13.4977 44.5003 15.2016 43.304 16.4525C42.2352 17.566 40.9062 18.122 39.3198 18.122C37.6074 18.122 36.3774 17.5224 35.6296 16.323H35.5754V22.9999H32.6871V9.33309C32.6871 7.9779 32.6505 6.58704 32.5801 5.16052H35.1202L35.2814 7.16954H35.3356C36.2974 5.65584 37.7592 4.90031 39.7222 4.90031C41.2544 4.90031 42.5346 5.49073 43.5614 6.6729C44.5843 7.85638 45.0977 9.41234 45.0977 11.3421ZM42.1552 11.4451C42.1552 10.2115 41.8694 9.1944 41.2977 8.39397C40.6732 7.55919 39.8373 7.1418 38.7847 7.1418C38.0708 7.1418 37.4246 7.37427 36.8447 7.8326C36.2649 8.2949 35.8869 8.89853 35.7095 9.64613C35.6214 9.99484 35.5754 10.2801 35.5754 10.5047V12.6181C35.5754 13.54 35.8653 14.318 36.4424 14.9533C37.0222 15.5873 37.7754 15.9056 38.7048 15.9056C39.7926 15.9056 40.6393 15.4962 41.2449 14.6799C41.8518 13.8623 42.1552 12.7845 42.1552 11.4451Z" fill="white"/>
<path d="M61.8145 12.906C61.8145 14.4012 61.2821 15.6178 60.2132 16.5569C59.0386 17.5832 57.4035 18.0957 55.3023 18.0957C53.3624 18.0957 51.8071 17.7311 50.6299 17.0007L51.2991 14.6535C52.5671 15.4011 53.9584 15.7763 55.4744 15.7763C56.5622 15.7763 57.4089 15.5359 58.0172 15.0577C58.6227 14.5796 58.9248 13.9376 58.9248 13.1372C58.9248 12.4239 58.6756 11.8229 58.1757 11.3356C57.6785 10.8482 56.848 10.3951 55.6884 9.9764C52.5319 8.82858 50.955 7.14713 50.955 4.93603C50.955 3.49101 51.5077 2.30621 52.6146 1.38425C53.7173 0.460978 55.1885 0 57.0282 0C58.6688 0 60.0316 0.2787 61.1195 0.834778L60.3974 3.13042C59.3814 2.59151 58.2326 2.32206 56.9469 2.32206C55.9309 2.32206 55.137 2.56642 54.5681 3.05249C54.0871 3.48705 53.846 4.01671 53.846 4.64412C53.846 5.33888 54.121 5.91345 54.6737 6.36519C55.1546 6.78257 56.0284 7.23431 57.2965 7.7217C58.8476 8.33061 59.9869 9.04255 60.7198 9.85884C61.45 10.6725 61.8145 11.6909 61.8145 12.906Z" fill="white"/>
<path d="M71.3642 7.27391H68.1807V13.4278C68.1807 14.993 68.7415 15.7749 69.8659 15.7749C70.3821 15.7749 70.8102 15.7313 71.1488 15.6442L71.2288 17.7826C70.6598 17.99 69.9106 18.0943 68.9826 18.0943C67.842 18.0943 66.9506 17.7549 66.3071 17.0773C65.6663 16.3984 65.3439 15.2598 65.3439 13.6602V7.27127H63.4473V5.15791H65.3439V2.83717L68.1807 2.0024V5.15791H71.3642V7.27391Z" fill="white"/>
<path d="M85.7281 11.3936C85.7281 13.3418 85.1564 14.9414 84.0158 16.1922C82.8195 17.4801 81.2318 18.122 79.2526 18.122C77.3451 18.122 75.8265 17.5052 74.6939 16.2715C73.5614 15.0378 72.9951 13.4805 72.9951 11.6036C72.9951 9.63949 73.5776 8.03069 74.7468 6.77985C75.9132 5.52768 77.4874 4.9016 79.4666 4.9016C81.3741 4.9016 82.9089 5.51843 84.0672 6.75343C85.1754 7.95144 85.7281 9.49816 85.7281 11.3936ZM82.7315 11.4847C82.7315 10.3158 82.4754 9.31324 81.9566 8.47714C81.351 7.46537 80.4854 6.9608 79.3636 6.9608C78.2027 6.9608 77.3207 7.46669 76.7152 8.47714C76.1963 9.31456 75.9403 10.3329 75.9403 11.5376C75.9403 12.7065 76.1963 13.709 76.7152 14.5438C77.3397 15.5556 78.2121 16.0602 79.3379 16.0602C80.4406 16.0602 81.3063 15.545 81.9308 14.5174C82.4632 13.6654 82.7315 12.6524 82.7315 11.4847Z" fill="white"/>
<path d="M95.1153 7.63712C94.8295 7.58561 94.5247 7.55919 94.2049 7.55919C93.1889 7.55919 92.4032 7.93299 91.8504 8.68191C91.3695 9.34234 91.1284 10.1771 91.1284 11.1849V17.8354H88.2414L88.2685 9.15214C88.2685 7.69127 88.232 6.36118 88.1602 5.16184H90.6759L90.7815 7.58693H90.8615C91.1663 6.75347 91.6472 6.08248 92.3056 5.57923C92.9491 5.12618 93.6441 4.90031 94.3932 4.90031C94.6601 4.90031 94.9013 4.91881 95.1153 4.95183V7.63712Z" fill="white"/>
<path d="M108.033 10.8984C108.033 11.4029 107.999 11.8282 107.927 12.1756H99.2626C99.2964 13.4278 99.7151 14.3854 100.52 15.0458C101.25 15.6363 102.194 15.9321 103.354 15.9321C104.637 15.9321 105.807 15.7327 106.86 15.3325L107.312 17.2873C106.082 17.8104 104.63 18.0706 102.954 18.0706C100.938 18.0706 99.3561 17.4921 98.2045 16.3363C97.0557 15.1806 96.48 13.6286 96.48 11.6816C96.48 9.77036 97.0151 8.17873 98.0867 6.90939C99.2084 5.5542 100.724 4.8766 102.632 4.8766C104.505 4.8766 105.924 5.5542 106.887 6.90939C107.65 7.98589 108.033 9.31731 108.033 10.8984ZM105.279 10.1679C105.298 9.33315 105.11 8.61197 104.718 8.00306C104.218 7.21979 103.45 6.82882 102.416 6.82882C101.472 6.82882 100.704 7.21055 100.117 7.97664C99.6365 8.58555 99.3506 9.31598 99.2626 10.1666H105.279V10.1679Z" fill="white"/>
</svg>
