<svg width="118" height="23" viewBox="0 0 118 23" fill="none" xmlns="http://www.w3.org/2000/svg">
<path d="M37.5289 6.3556C34.2757 6.3556 31.6181 8.76954 31.6181 12.1001C31.6181 15.4037 34.2757 17.8429 37.5289 17.8429C40.789 17.8429 43.4467 15.4037 43.4467 12.1001C43.4467 8.76954 40.789 6.3556 37.5289 6.3556ZM37.5289 15.5809C35.7439 15.5809 34.2082 14.1444 34.2082 12.1001C34.2082 10.0288 35.7439 8.61762 37.5289 8.61762C39.3139 8.61762 40.8566 10.0288 40.8566 12.1001C40.8566 14.1444 39.3139 15.5809 37.5289 15.5809ZM24.632 6.3556C21.3719 6.3556 18.7212 8.76954 18.7212 12.1001C18.7212 15.4037 21.3719 17.8429 24.632 17.8429C27.8904 17.8429 30.5429 15.4037 30.5429 12.1001C30.5429 8.76954 27.8904 6.3556 24.632 6.3556ZM24.632 15.5809C22.8453 15.5809 21.3044 14.1444 21.3044 12.1001C21.3044 10.0288 22.8453 8.61762 24.632 8.61762C26.417 8.61762 27.9528 10.0288 27.9528 12.1001C27.9528 14.1444 26.417 15.5809 24.632 15.5809ZM9.28527 8.11626V10.5572H15.2636C15.0888 11.9212 14.6213 12.9239 13.9045 13.6228C13.0319 14.4668 11.6728 15.4037 9.28527 15.4037C5.60613 15.4037 2.72515 12.5086 2.72515 8.92147C2.72515 5.33431 5.60613 2.43927 9.28527 2.43927C11.2746 2.43927 12.722 3.19721 13.7903 4.17967L15.5545 2.45952C14.0604 1.06855 12.0728 4.76837e-07 9.28527 4.76837e-07C4.24009 4.76837e-07 0 4.00242 0 8.92147C0 13.8405 4.24009 17.8429 9.28527 17.8429C12.0122 17.8429 14.0604 16.9719 15.6705 15.3378C17.3205 13.7291 17.8347 11.4671 17.8347 9.64059C17.8347 9.0734 17.7862 8.55178 17.6997 8.11626H9.28527ZM72.0401 10.0086C71.5535 8.72396 70.0525 6.3556 66.9949 6.3556C63.965 6.3556 61.4424 8.68345 61.4424 12.1001C61.4424 15.3176 63.939 17.8429 67.2857 17.8429C69.9919 17.8429 71.5535 16.2342 72.1959 15.2973L70.1875 13.9924C69.5175 14.9479 68.605 15.5809 67.2857 15.5809C65.9751 15.5809 65.035 14.9952 64.4325 13.8405L72.3119 10.6619L72.0401 10.0086ZM64.0066 11.9212C63.939 9.70642 65.7708 8.57204 67.0832 8.57204C68.1116 8.57204 68.9842 9.0734 69.2751 9.79083L64.0066 11.9212ZM57.6023 17.4935H60.1924V0.612772H57.6023V17.4935ZM53.3604 7.63516H53.2739C52.6921 6.9633 51.5823 6.3556 50.1765 6.3556C47.2262 6.3556 44.5288 8.88096 44.5288 12.1187C44.5288 15.3378 47.2262 17.8429 50.1765 17.8429C51.5823 17.8429 52.6921 17.2302 53.2739 16.5381H53.3604V17.3618C53.3604 19.558 52.1571 20.738 50.2163 20.738C48.6338 20.738 47.6522 19.6239 47.247 18.687L44.9945 19.6036C45.6438 21.1262 47.363 23 50.2163 23C53.2531 23 55.8155 21.2579 55.8155 17.0192V6.70503H53.3604V7.63516ZM50.3981 15.5809C48.6131 15.5809 47.1189 14.1241 47.1189 12.1187C47.1189 10.0947 48.6131 8.61762 50.3981 8.61762C52.1571 8.61762 53.544 10.0947 53.544 12.1187C53.544 14.1241 52.1571 15.5809 50.3981 15.5809ZM84.1665 0.612772H77.9717V17.4935H80.5549V11.0974H84.1665C87.0353 11.0974 89.8488 9.0734 89.8488 5.85424C89.8488 2.63677 87.0284 0.612772 84.1665 0.612772ZM84.234 8.74929H80.5549V2.96088H84.234C86.1627 2.96088 87.2639 4.52235 87.2639 5.85424C87.2639 7.16081 86.1627 8.74929 84.234 8.74929ZM100.202 6.32352C98.3359 6.32352 96.3951 7.12705 95.5969 8.90796L97.8892 9.84484C98.3827 8.90796 99.2899 8.60411 100.249 8.60411C101.589 8.60411 102.948 9.38907 102.969 10.775V10.9522C102.502 10.6889 101.501 10.2989 100.27 10.2989C97.8009 10.2989 95.2853 11.6241 95.2853 14.0971C95.2853 16.3591 97.3075 17.8159 99.5808 17.8159C101.319 17.8159 102.278 17.0512 102.881 16.1616H102.969V17.4665H105.464V10.991C105.464 7.99809 103.172 6.32352 100.202 6.32352ZM99.8907 15.5742C99.0458 15.5742 97.8684 15.1657 97.8684 14.1444C97.8684 12.8378 99.3366 12.3364 100.607 12.3364C101.745 12.3364 102.278 12.5812 102.969 12.9036C102.766 14.4668 101.387 15.5742 99.8907 15.5742ZM114.554 6.69321L111.584 14.011H111.496L108.426 6.69321H105.641L110.253 16.9196L107.621 22.6101H110.32L117.428 6.69321H114.554ZM91.2685 17.4935H93.8586V0.612772H91.2685V17.4935Z" fill="white"/>
</svg>
