<svg width="70" height="70" viewBox="0 0 70 70" fill="none" xmlns="http://www.w3.org/2000/svg">
<path fill-rule="evenodd" clip-rule="evenodd" d="M56 1H14C6.8203 1 1 6.8203 1 14V28.0672C2.93181 23.2457 7.47269 19.7238 12.9453 19.3103L54.9453 16.1373C61.2295 15.6625 66.7993 19.3999 69 24.8878V14C69 6.8203 63.1797 1 56 1ZM1 43.0411V33.2706C1 26.4708 6.24017 20.8198 13.0206 20.3075L55.0206 17.1344C62.5647 16.5645 69 22.5319 69 30.0975V46.6482C67.0861 41.8711 62.6103 38.3665 57.1956 37.9024L15.1956 34.3024C8.86135 33.7595 3.21886 37.5083 1 43.0411ZM0 48.2513V33.2706V14C0 6.26801 6.26801 0 14 0H56C63.732 0 70 6.26801 70 14V30.0975V51.8513V55.9999C70 58.809 69.1727 61.4247 67.7486 63.6169C67.1246 64.5774 66.386 65.4566 65.5521 66.2351C63.0507 68.5707 59.6923 70 56 70H14C6.26801 70 0 63.732 0 56V55.9999V55.9999V48.2513Z" fill="#212529"/>
<path d="M59.6974 50.3801C59.9049 50.3801 60.1383 50.4061 60.3457 50.432L60.3198 52.1953C59.9308 52.1435 59.5419 52.1176 59.1788 52.1176C57.986 52.1176 57.1561 52.7658 57.1561 53.9846V58.2634H55.2891V50.4839H56.9487L57.0524 51.7026C57.6229 50.8728 58.5565 50.3801 59.6974 50.3801Z" fill="white"/>
<path d="M50.959 49.4467V47.7871H52.9817V49.4467H50.959ZM51.0368 58.2635V50.484H52.9039V58.2635H51.0368Z" fill="white"/>
<path d="M47.6134 50.4842H49.6101L46.602 58.2637H44.32L41.3379 50.4842H43.3606L45.5129 56.4225L47.6134 50.4842Z" fill="white"/>
<path d="M34.9335 54.97C35.115 56.137 35.893 56.8371 37.1117 56.8371C38.1231 56.8371 38.8492 56.4481 39.3159 55.9036L40.4829 57.0186C39.7827 57.8225 38.6677 58.393 37.1117 58.393C34.4408 58.393 33.0664 56.6815 33.0664 54.3736C33.0664 51.9879 34.6223 50.3542 36.9821 50.3542C39.29 50.3542 40.794 51.936 40.794 54.3736C40.794 54.5551 40.794 54.7107 40.7163 54.97H34.9335ZM36.9821 51.8582C35.893 51.8582 35.1669 52.5065 34.9594 53.5956H38.901C38.6936 52.4806 37.9934 51.8582 36.9821 51.8582Z" fill="white"/>
<path d="M31.9533 50.3801C32.1608 50.3801 32.3941 50.4061 32.6016 50.432L32.5757 52.1953C32.1867 52.1435 31.7977 52.1176 31.4347 52.1176C30.2418 52.1176 29.412 52.7658 29.412 53.9846V58.2634H27.5449V50.4839H29.2046L29.3083 51.7026C29.8788 50.8728 30.8123 50.3801 31.9533 50.3801Z" fill="white"/>
<path d="M20.0233 54.97C20.2049 56.137 20.9828 56.8371 22.2016 56.8371C23.2129 56.8371 23.939 56.4481 24.4058 55.9036L25.5727 57.0186C24.8726 57.8225 23.7575 58.393 22.2016 58.393C19.5306 58.393 18.1562 56.6815 18.1562 54.3736C18.1562 51.9879 19.7122 50.3542 22.0719 50.3542C24.3799 50.3542 25.8839 51.936 25.8839 54.3736C25.8839 54.5551 25.8839 54.7107 25.8061 54.97H20.0233ZM22.0719 51.8582C20.9828 51.8582 20.2567 52.5065 20.0493 53.5956H23.9909C23.7834 52.4806 23.0833 51.8582 22.0719 51.8582Z" fill="white"/>
<path d="M13.7219 48.4094C16.0039 48.4094 17.3782 49.6022 17.3782 51.5212C17.3782 53.466 16.0039 54.633 13.7219 54.633H11.5436V58.2634H9.54688V48.4094H13.7219ZM13.4885 53.0252C14.7073 53.0252 15.3556 52.5325 15.3556 51.573C15.3556 50.5876 14.7073 50.0949 13.4885 50.0949H11.5436V53.0252H13.4885Z" fill="white"/>
</svg>
