<svg width="32" height="32" viewBox="0 0 32 32" fill="none" xmlns="http://www.w3.org/2000/svg">
<path d="M3.47564 2.90694C3.17436 3.21444 3 3.69319 3 4.31319V26.4282C3 27.0482 3.17436 27.5269 3.47564 27.8344L3.55 27.9019L16.2602 15.5144V15.2219L3.55 2.83445L3.47564 2.90694Z" fill="white"/>
<path d="M22.0309 19.6457L17.7988 15.5144V15.2219L22.036 11.0907L22.1309 11.1444L27.1488 13.9282C28.5809 14.7182 28.5809 16.0182 27.1488 16.8132L22.1309 19.5919L22.0309 19.6457Z" fill="white"/>
<path d="M21.3608 20.3612L17.0288 16.1374L4.24414 28.6037C4.71978 29.0912 5.49542 29.1499 6.37747 28.6624L21.3608 20.3612Z" fill="white"/>
<path d="M21.3608 10.3753L6.37747 2.074C5.49542 1.5915 4.71978 1.65025 4.24414 2.13775L17.0288 14.599L21.3608 10.3753Z" fill="white"/>
</svg>
