<svg width="32" height="32" viewBox="0 0 32 32" fill="none" xmlns="http://www.w3.org/2000/svg">
<path d="M24.2119 16.4221C24.1781 12.7584 27.2887 10.976 27.4309 10.893C25.6693 8.38881 22.9388 8.04665 21.9792 8.01937C19.686 7.78406 17.4614 9.35731 16.2932 9.35731C15.1017 9.35731 13.3027 8.0421 11.3639 8.08075C8.86885 8.11826 6.53475 9.52668 5.25461 11.7138C2.61271 16.1732 4.58306 22.7265 7.1142 26.3311C8.38035 28.0965 9.85986 30.0676 11.7964 29.9982C13.691 29.9221 14.3987 28.8206 16.685 28.8206C18.9503 28.8206 19.6148 29.9982 21.5898 29.9539C23.6231 29.9221 24.9033 28.1806 26.1251 26.3993C27.5883 24.3759 28.1759 22.3832 28.1993 22.2809C28.1515 22.265 24.2504 20.8134 24.2119 16.4221Z" fill="white"/>
<path d="M20.4811 5.64813C21.5001 4.40567 22.1973 2.71534 22.0037 1C20.5289 1.06366 18.6845 1.99465 17.6223 3.20982C16.6826 4.28063 15.8432 6.03576 16.06 7.6863C17.7168 7.8068 19.4178 6.87126 20.4811 5.64813Z" fill="white"/>
</svg>
